<?xml version="1.0" encoding="iso-8859-1"?>
<!-- Uploaded to: SVG Repo, www.svgrepo.com, Generator: SVG Repo Mixer Tools -->
<svg fill="#000000" height="800px" width="800px" version="1.1" id="Capa_1" xmlns="http://www.w3.org/2000/svg" xmlns:xlink="http://www.w3.org/1999/xlink" 
	 viewBox="0 0 605.658 605.658" xml:space="preserve">
<g>
	<g>
		<path d="M465.659,132.898C420.708,47.198,362.881,0,302.827,0s-117.881,47.198-162.83,132.898
			c-38.982,74.325-62.254,166.631-62.254,246.917c0,124.529,100.972,225.843,225.084,225.843s225.089-101.314,225.089-225.843
			C527.915,299.529,504.641,207.223,465.659,132.898z M123.615,317.611c5.074-0.241,9.984-2.374,13.585-5.975
			c3.822-3.822,6.022-9.126,6.022-14.53c0-5.428-2.2-10.71-6.022-14.534c-1.815-1.825-3.968-3.259-6.305-4.276
			c3.257-14.501,7.125-28.986,11.561-43.242l52.348,31.127c6.469,3.848,14.534,3.846,21.006,0l58.631-34.861l58.618,34.859
			c6.473,3.852,14.534,3.85,21.01,0l58.622-34.859l59.232,35.014c3.766,15.186,6.866,30.454,9.248,45.567
			c-1.79-0.502-3.644-0.779-5.518-0.779c-5.424,0-10.708,2.178-14.532,5.999c-3.844,3.844-6.022,9.128-6.022,14.552
			c0,5.406,2.178,10.708,6.022,14.532c3.824,3.824,9.107,6.022,14.532,6.022c3.489,0,6.923-0.928,9.958-2.602
			c0.781,10.268,1.197,20.362,1.197,30.189c0,5.343-0.241,10.629-0.685,15.857l-61.787-33.491c-6.11-3.312-13.482-3.308-19.587,0
			l-66.049,35.801l-66.045-35.801c-6.11-3.312-13.477-3.312-19.587,0l-66.055,35.801l-67.636-37.999
			C120.09,346.173,121.519,331.982,123.615,317.611z M302.827,41.107c43.387,0,89.468,40.414,126.427,110.884
			c9.215,17.568,17.515,36.468,24.767,56.083l-30.823-18.331c-6.475-3.856-14.536-3.854-21.012,0l-58.62,34.859l-58.616-34.859
			c-6.477-3.852-14.538-3.856-21.01-0.002l-58.631,34.863l-48.856-29.053c6.048-15.137,12.713-29.763,19.95-43.558
			C213.361,81.523,259.444,41.107,302.827,41.107z M302.827,564.551c-91.54,0-167.669-67.481-181.667-155.501l56.057,30.381
			c6.11,3.312,13.475,3.312,19.585,0l66.057-35.801l66.043,35.801c6.112,3.312,13.482,3.308,19.587,0l66.051-35.801l62.982,34.139
			C453.258,511.33,384.12,564.551,302.827,564.551z"/>
		<path d="M207.802,346.206c3.824-3.844,6.022-9.126,6.022-14.532c0-5.424-2.198-10.708-6.022-14.552
			c-3.822-3.822-9.126-5.999-14.532-5.999c-5.406,0-10.71,2.178-14.532,5.999c-3.824,3.824-6.02,9.128-6.02,14.552
			c0,5.406,2.196,10.708,6.02,14.532c3.822,3.824,9.126,6.022,14.532,6.022C198.678,352.23,203.98,350.029,207.802,346.206z"/>
		<path d="M263.871,317.66c5.404,0,10.708-2.198,14.532-6.022c3.822-3.846,6.022-9.126,6.022-14.53c0-5.408-2.2-10.71-6.022-14.534
			c-3.844-3.844-9.128-6.02-14.532-6.02s-10.708,2.176-14.532,6.02c-3.844,3.824-6.022,9.126-6.022,14.534
			c0,5.404,2.178,10.708,6.022,14.53C253.163,315.46,258.447,317.66,263.871,317.66z"/>
		<path d="M334.452,352.23c5.426,0,10.708-2.198,14.532-6.022c3.822-3.844,6.022-9.126,6.022-14.532
			c0-5.424-2.2-10.708-6.022-14.552c-3.824-3.822-9.126-5.999-14.532-5.999c-5.404,0-10.708,2.178-14.532,5.999
			c-3.822,3.844-6.022,9.128-6.022,14.552c0,5.406,2.2,10.688,6.022,14.532C323.743,350.029,329.046,352.23,334.452,352.23z"/>
		<path d="M405.053,317.66c5.406,0,10.71-2.198,14.532-6.022c3.824-3.846,6.022-9.126,6.022-14.53c0-5.408-2.198-10.71-6.022-14.534
			c-3.822-3.824-9.126-6.02-14.532-6.02c-5.406,0-10.708,2.196-14.53,6.02c-3.824,3.824-6.024,9.126-6.024,14.534
			c0,5.404,2.2,10.684,6.024,14.53C394.344,315.46,399.646,317.66,405.053,317.66z"/>
	</g>
</g>
</svg>